<svg viewBox="0 0 129.292 129.291" xmlns="http://www.w3.org/2000/svg" xmlns:xlink="http://www.w3.org/1999/xlink" width="129.291748" height="129.291016" fill="none" customFrame="#000000">
	<rect id="Arrow" width="120.274109" height="120.274109" x="0.000000" y="0.000000" fill="rgb(255,255,255)" fill-opacity="0" transform="matrix(0.0780239,0.996951,0.996951,-0.0780239,0.000244141,9.38477)" />
	<path id="Vector" d="M0.04794 59.1064C-0.108807 59.0443 -1.12098 84.3858 23.368 81.5487C44.0471 79.153 58.1309 60.0667 57.462 41.0792C57.1757 32.9497 49.1397 19.034 39.4998 26.6043C30.847 33.3993 30.4355 47.431 35.235 56.5597C45.3736 75.844 63.2829 71.7567 75.5932 57.0607C89.2316 40.7789 91.7211 20.1384 89.1189 0" stroke="rgb(108,95,188)" stroke-linecap="round" stroke-linejoin="round" stroke-width="2.886579" transform="matrix(0.0780239,0.996951,0.996951,-0.0780239,23.2581,14.0791)" />
	<path id="Vector" d="M0 21.8273C7.54136 18.0997 11.122 7.97608 11.8094 0C13.5104 7.19187 18.7628 13.3886 24.8144 17.3461C26.6572 18.5516 28.4373 19.851 30.6403 20.288" stroke="rgb(108,95,188)" stroke-linecap="round" stroke-linejoin="round" stroke-width="2.886579" transform="matrix(0.0780239,0.996951,0.996951,-0.0780239,22.3225,91.1328)" />
</svg>
