<svg viewBox="0 0 18.2732 14.5493" xmlns="http://www.w3.org/2000/svg" xmlns:xlink="http://www.w3.org/1999/xlink" width="18.273193" height="14.549316" fill="none" customFrame="#000000">
	<g id="Email">
		<path id="Icon" d="M0.187501 3.62436C-0.0850815 6.04326 -0.072931 8.83304 0.306371 11.2421C0.516247 12.5751 1.65532 13.597 3.06139 13.7138L4.53086 13.8358C7.59491 14.0902 10.6763 14.0902 13.7404 13.8358L15.2098 13.7138C16.6159 13.597 17.755 12.5751 17.9648 11.2421C18.3441 8.83303 18.3563 6.04342 18.0837 3.6245C18.0485 3.34408 18.0089 3.06402 17.9648 2.78444C17.755 1.45144 16.6159 0.429532 15.2098 0.312794L13.7404 0.190793C10.6763 -0.0635976 7.59491 -0.0635975 4.53086 0.190793L3.06139 0.312794C1.65532 0.429532 0.516247 1.45144 0.306371 2.78444C0.262359 3.06397 0.222736 3.34398 0.187501 3.62436ZM4.65725 1.57952C7.6372 1.33212 10.634 1.33211 13.614 1.57952L15.0834 1.70152C15.8174 1.76246 16.412 2.2959 16.5216 2.99173C16.5329 3.06399 16.544 3.13628 16.5548 3.20861L11.1438 6.07967C9.8949 6.74237 8.37625 6.74237 7.1273 6.07967L1.71645 3.20864C1.72721 3.13631 1.73828 3.064 1.74966 2.99173C1.85921 2.2959 2.45381 1.76246 3.18778 1.70152L4.65725 1.57952ZM16.7334 4.70849C16.9221 6.81593 16.8515 8.93927 16.5216 11.0348C16.412 11.7307 15.8174 12.2641 15.0834 12.325L13.614 12.447C10.634 12.6944 7.6372 12.6944 4.65726 12.447L3.18778 12.325C2.45381 12.2641 1.85921 11.7307 1.74966 11.0348C1.41972 8.93928 1.34912 6.81596 1.53785 4.70852L6.41849 7.29821C8.10825 8.19481 10.1629 8.19481 11.8527 7.29821L16.7334 4.70849Z" opacity="0" fill="rgb(0,90,100)" fill-opacity="0.349999994" fill-rule="evenodd" />
		<path id="Icon" d="M4.44005 0.203747C7.5652 -0.0679155 10.708 -0.0679157 13.8332 0.203747L15.3388 0.334631C16.3411 0.421761 17.1996 1.01961 17.6444 1.87479C17.7013 1.98419 17.6586 2.11665 17.5538 2.18156L11.3068 6.04873C9.96702 6.87813 8.27764 6.89553 6.92105 6.09391L0.632336 2.37785C0.530735 2.31781 0.484099 2.19423 0.529887 2.08546C0.936808 1.11883 1.85166 0.428751 2.9344 0.334631L4.44005 0.203747ZM0.152754 4.23801C0.170879 4.05831 0.369279 3.95944 0.52477 4.05132L6.16027 7.38138C7.99566 8.46593 10.2813 8.44239 12.094 7.32026L17.7214 3.8366C17.8762 3.74079 18.078 3.83784 18.0975 4.01881C18.3767 6.59843 18.3231 9.20502 17.9368 11.7743C17.7389 13.0904 16.6647 14.0994 15.3388 14.2146L13.8332 14.3455C10.708 14.6172 7.56519 14.6172 4.44005 14.3455L2.9344 14.2146C1.60848 14.0994 0.534341 13.0904 0.336429 11.7743C-0.0389875 9.27777 -0.100212 6.74602 0.152754 4.23801Z" fill="rgb(108,95,188)" fill-rule="evenodd" />
	</g>
</svg>
