<svg width="51" height="51" viewBox="0 0 51 51" fill="none" xmlns="http://www.w3.org/2000/svg">
<rect width="50.2588" height="50.2588" rx="25.1294" fill="#F4F0FF"/>
<path d="M25.8202 14.4161L25.7888 14.4893L22.7523 21.5361H19.7682C19.0562 21.5361 18.3756 21.6826 17.7578 21.9444L19.5902 17.5677L19.632 17.463L19.7053 17.2955C19.7263 17.2326 19.7472 17.1698 19.7786 17.1175C21.1503 13.9449 22.6999 13.2224 25.8202 14.4161Z" stroke="#936DFF" stroke-width="1.57059" stroke-linecap="round" stroke-linejoin="round"/>
<path d="M31.4635 21.7454C30.9923 21.5988 30.4897 21.536 29.9871 21.536H22.752L25.7884 14.4893L25.8198 14.416C25.9769 14.4684 26.1235 14.5417 26.2805 14.6045L28.5945 15.5783C29.8824 16.1123 30.7829 16.6672 31.3274 17.3373C31.4321 17.463 31.5158 17.5781 31.5891 17.7143C31.6834 17.8608 31.7567 18.0074 31.7985 18.1645C31.8404 18.2587 31.8718 18.353 31.8928 18.4367C32.1755 19.3163 32.008 20.3947 31.4635 21.7454Z" stroke="#936DFF" stroke-width="1.57059" stroke-linecap="round" stroke-linejoin="round"/>
<path d="M35.099 26.6458V28.6875C35.099 28.897 35.0885 29.1064 35.0781 29.3158C34.8791 32.97 32.8374 34.8128 28.9633 34.8128H20.7962C20.5449 34.8128 20.2936 34.7919 20.0528 34.7605C16.7231 34.5406 14.9431 32.7606 14.7233 29.431C14.6918 29.1901 14.6709 28.9388 14.6709 28.6875V26.6458C14.6709 24.5412 15.9483 22.7298 17.7702 21.9445C18.3984 21.6827 19.0685 21.5361 19.7805 21.5361H29.9998C30.5129 21.5361 31.0155 21.6094 31.4762 21.7455C33.5598 22.3843 35.099 24.3318 35.099 26.6458Z" stroke="#936DFF" stroke-width="1.57059" stroke-linecap="round" stroke-linejoin="round"/>
<path d="M19.5899 17.5674L17.7575 21.9441C15.9356 22.7294 14.6582 24.5408 14.6582 26.6454V23.5775C14.6582 20.6039 16.7733 18.1223 19.5899 17.5674Z" stroke="#936DFF" stroke-width="1.57059" stroke-linecap="round" stroke-linejoin="round"/>
<path d="M35.0955 23.5774V26.6452C35.0955 24.3417 33.5668 22.3837 31.4727 21.7555C32.0171 20.3943 32.1742 19.3263 31.9124 18.4363C31.8915 18.3421 31.8601 18.2478 31.8182 18.1641C33.7657 19.1692 35.0955 21.2319 35.0955 23.5774Z" stroke="#936DFF" stroke-width="1.57059" stroke-linecap="round" stroke-linejoin="round"/>
</svg>
