<svg viewBox="0 0 20.6274 24.2148" xmlns="http://www.w3.org/2000/svg" xmlns:xlink="http://www.w3.org/1999/xlink" width="20.627441" height="24.214844" fill="none">
	<rect id="Apple_logo_black 1" width="20.627527" height="24.214926" x="0.000000" y="-0.000488" fill="rgb(255,255,255)" fill-opacity="0" />
	<path id="path4" d="M20.1952 18.8722C19.8249 19.7182 19.3865 20.497 18.8786 21.2129C18.1863 22.189 17.6194 22.8646 17.1826 23.2398C16.5054 23.8556 15.7798 24.171 15.0028 24.1889C14.445 24.1889 13.7723 24.0319 12.9893 23.7136C12.2037 23.3967 11.4818 23.2398 10.8217 23.2398C10.1293 23.2398 9.38684 23.3967 8.59264 23.7136C7.79723 24.0319 7.15645 24.1979 6.66654 24.2143C5.92146 24.2457 5.1788 23.9213 4.4375 23.2398C3.96437 22.8317 3.37257 22.1322 2.66362 21.1412C1.90298 20.0829 1.27762 18.8558 0.787704 17.4568C0.263021 15.9456 0 14.4823 0 13.0656C0 11.4428 0.354626 10.0432 1.06493 8.87028C1.62318 7.92817 2.36583 7.18501 3.29533 6.63944C4.22482 6.09387 5.22914 5.81586 6.3107 5.79807C6.9025 5.79807 7.67857 5.97908 8.64298 6.33482C9.60467 6.69176 10.2222 6.87276 10.4929 6.87276C10.6953 6.87276 11.3813 6.66111 12.5442 6.23916C13.6439 5.84785 14.572 5.68582 15.3323 5.74964C17.3927 5.91406 18.9406 6.71716 19.97 8.16404C18.1273 9.26802 17.2158 10.8143 17.234 12.7979C17.2506 14.343 17.8174 15.6287 18.9315 16.6496C19.4364 17.1234 20.0002 17.4896 20.6275 17.7497C20.4915 18.1398 20.3479 18.5135 20.1952 18.8722ZM15.4699 0.485901C15.4699 1.69692 15.0225 2.82765 14.1306 3.87424C13.0543 5.11843 11.7525 5.83738 10.3408 5.72394C10.3228 5.57865 10.3124 5.42574 10.3124 5.26506C10.3124 4.10248 10.8242 2.85829 11.7332 1.841C12.187 1.32592 12.7641 0.897647 13.464 0.556002C14.1623 0.219455 14.8229 0.0333367 15.4442 0.00146484C15.4623 0.16336 15.4699 0.325265 15.4699 0.485885L15.4699 0.485901Z" fill="rgb(50,49,66)" fill-rule="nonzero" />
</svg>
