<svg viewBox="0 0 32.1575 21.3334" xmlns="http://www.w3.org/2000/svg" xmlns:xlink="http://www.w3.org/1999/xlink" width="32.157471" height="21.333374" fill="none" customFrame="#000000">
	<g id="Back">
		<path id="Vector 165 (Stroke)" d="M0 10.666C0 10.0115 0.530624 9.48083 1.18518 9.48083L29.6306 9.48083C30.2852 9.48083 30.8158 10.0115 30.8158 10.666C30.8158 11.3206 30.2852 11.8512 29.6306 11.8512L1.18518 11.8512C0.530624 11.8512 0 11.3206 0 10.666Z" fill="rgb(206.125,206.125,206.125)" fill-rule="evenodd" />
		<path id="Vector 166 (Stroke)" d="M22.5505 0.274744C23.0533 -0.144303 23.8007 -0.0763779 24.2197 0.426459L31.6997 9.40208C32.3102 10.1346 32.3101 11.1987 31.6997 11.9313L24.2197 20.9069C23.8007 21.4097 23.0533 21.4776 22.5505 21.0586C22.0476 20.6395 21.9797 19.8922 22.3988 19.3894L29.668 10.6667L22.3988 1.94396C21.9797 1.44113 22.0476 0.693791 22.5505 0.274744Z" fill="rgb(206.125,206.125,206.125)" fill-rule="evenodd" />
	</g>
</svg>
