<svg viewBox="0 0 32.1584 21.3334" xmlns="http://www.w3.org/2000/svg" xmlns:xlink="http://www.w3.org/1999/xlink" width="32.158447" height="21.333374" fill="none" customFrame="#000000">
	<g id="Back">
		<path id="Vector 165 (Stroke)" d="M0.000488281 10.6671C0.000488281 10.0126 0.531112 9.48193 1.18567 9.48193L29.6311 9.48193C30.2857 9.48193 30.8163 10.0126 30.8163 10.6671C30.8163 11.3217 30.2857 11.8523 29.6311 11.8523L1.18567 11.8523C0.531112 11.8523 0.000488281 11.3217 0.000488281 10.6671Z" fill="rgb(95.625,94.4297,94.4297)" fill-rule="evenodd" />
		<path id="Vector 166 (Stroke)" d="M22.5519 0.274866C23.0548 -0.144181 23.8021 -0.0762558 24.2212 0.426582L31.7011 9.4022C32.3116 10.1347 32.3116 11.1988 31.7011 11.9314L24.2212 20.907C23.8021 21.4098 23.0548 21.4778 22.5519 21.0587C22.0491 20.6397 21.9812 19.8923 22.4002 19.3895L29.6694 10.6668L22.4002 1.94409C21.9812 1.44125 22.0491 0.693913 22.5519 0.274866Z" fill="rgb(95.625,94.4297,94.4297)" fill-rule="evenodd" />
	</g>
</svg>
