<svg viewBox="0 0 29.9883 21.7666" xmlns="http://www.w3.org/2000/svg" xmlns:xlink="http://www.w3.org/1999/xlink" width="29.988281" height="21.766602" fill="none" customFrame="#000000">
	<g id="icon">
		<path id="Rectangle 147 (Stroke)" d="M0 2.45753C0 1.10027 1.10027 0 2.45753 0L19.3092 0C20.6664 0 21.7667 1.10027 21.7667 2.45753L21.7667 27.6597C21.7667 29.1397 20.0477 29.9554 18.9013 29.0195L15.7984 26.4866L11.9934 29.5927C11.3473 30.1201 10.4194 30.1201 9.77329 29.5927L5.96829 26.4866L2.86544 29.0195C1.71897 29.9554 0 29.1397 0 27.6597L0 2.45753ZM2.45753 2.10646C2.26364 2.10646 2.10646 2.26364 2.10646 2.45753L2.10646 26.9199L4.85823 24.6736C5.5043 24.1462 6.43228 24.1462 7.07835 24.6736L10.8834 27.7797L14.6884 24.6736C15.3344 24.1462 16.2624 24.1462 16.9085 24.6736L19.6603 26.9199L19.6603 2.45753C19.6603 2.26364 19.5031 2.10646 19.3092 2.10646L2.45753 2.10646Z" fill="rgb(172,173,185)" fill-rule="evenodd" transform="matrix(-1.00614e-16,-1,1,-1.00614e-16,0,21.7666)" />
		<path id="Vector 354 (Stroke)" d="M0 1.05323C0 0.471546 0.471546 0 1.05323 0L12.2877 0C12.8693 0 13.3409 0.471546 13.3409 1.05323C13.3409 1.63491 12.8693 2.10646 12.2877 2.10646L1.05323 2.10646C0.471546 2.10646 0 1.63491 0 1.05323Z" fill="rgb(172,173,185)" fill-rule="evenodd" transform="matrix(-1.00614e-16,-1,1,-1.00614e-16,8.42578,17.5537)" />
		<path id="Vector 356 (Stroke)" d="M0 1.05323C0 0.471546 0.471546 0 1.05323 0L12.2877 0C12.8693 0 13.3409 0.471546 13.3409 1.05323C13.3409 1.63491 12.8693 2.10646 12.2877 2.10646L1.05323 2.10646C0.471546 2.10646 0 1.63491 0 1.05323Z" fill="rgb(172,173,185)" fill-rule="evenodd" transform="matrix(-1.00614e-16,-1,1,-1.00614e-16,12.6382,17.5537)" />
		<path id="Vector 357 (Stroke)" d="M0 1.05323C0 0.471546 0.471546 0 1.05323 0L12.2877 0C12.8693 0 13.3409 0.471546 13.3409 1.05323C13.3409 1.63491 12.8693 2.10646 12.2877 2.10646L1.05323 2.10646C0.471546 2.10646 0 1.63491 0 1.05323Z" fill="rgb(172,173,185)" fill-rule="evenodd" transform="matrix(-1.00614e-16,-1,1,-1.00614e-16,16.8511,17.5537)" />
	</g>
</svg>
