<svg viewBox="0 0 116.455 117" xmlns="http://www.w3.org/2000/svg" xmlns:xlink="http://www.w3.org/1999/xlink" width="116.454590" height="117.000000" fill="none" customFrame="#000000">
	<rect id="Arrow" width="79.863747" height="85.588989" x="0.000000" y="0.000000" fill="rgb(255,255,255)" fill-opacity="0" transform="matrix(-0.753114,0.65789,-0.65789,-0.753114,116.455,64.4585)" />
	<path id="Vector" d="M0.0318329 42.0611C-0.0722491 42.0169 -0.744348 60.0503 15.5167 58.0314C29.2479 56.3266 38.5998 42.7444 38.1556 29.2327C37.9655 23.4476 32.6295 13.5449 26.2285 18.932C20.4829 23.7675 20.2096 33.7527 23.3965 40.2488C30.1287 53.9718 42.0208 51.0632 50.195 40.6053C59.2511 29.0189 60.9041 14.3308 59.1762 0" stroke="rgb(255,255,255)" stroke-linecap="round" stroke-linejoin="round" stroke-width="2.093294" transform="matrix(-0.753114,0.65789,-0.65789,-0.753114,102.521,55.0649)" />
	<path id="Vector" d="M0 15.5327C5.00757 12.8801 7.3852 5.67591 7.84162 0C8.97111 5.11785 12.4588 9.52757 16.4771 12.3438C17.7008 13.2016 18.8828 14.1263 20.3456 14.4373" stroke="rgb(255,255,255)" stroke-linecap="round" stroke-linejoin="round" stroke-width="2.093294" transform="matrix(-0.753114,0.65789,-0.65789,-0.753114,67.3926,92.3135)" />
</svg>
