<svg viewBox="0 0 41.9854 41.9854" xmlns="http://www.w3.org/2000/svg" xmlns:xlink="http://www.w3.org/1999/xlink" width="41.985352" height="41.985352" fill="none" customFrame="#000000">
	<g id="Locatin">
		<circle id="Ellipse 2039" cx="20.9927177" cy="20.9927177" r="20.9927177" opacity="0.300000012" fill="rgb(108,95,188)" />
		<path id="Icon" d="M20.9833 9.18457C16.2093 9.18457 12.2334 12.8462 11.8412 17.6041C11.63 20.1658 12.4213 22.7094 14.0484 24.6992L19.5185 31.3891C20.4029 32.4707 22.0565 32.4707 22.941 31.3891L28.4111 24.6992C30.0382 22.7094 30.8295 20.1658 30.6183 17.6041C30.2261 12.8462 26.2502 9.18457 21.4762 9.18457L20.9833 9.18457ZM15.8087 18.8853C15.8087 15.8914 18.2358 13.4643 21.2297 13.4643C24.2236 13.4643 26.6507 15.8914 26.6507 18.8853C26.6507 21.8792 24.2236 24.3063 21.2297 24.3063C18.2358 24.3063 15.8087 21.8792 15.8087 18.8853ZM21.2297 15.1762C19.1812 15.1762 17.5206 16.8368 17.5206 18.8853C17.5206 20.9338 19.1812 22.5944 21.2297 22.5944C23.2782 22.5944 24.9388 20.9338 24.9388 18.8853C24.9388 16.8368 23.2782 15.1762 21.2297 15.1762Z" fill="rgb(108,95,188)" fill-rule="evenodd" />
	</g>
</svg>
