<svg viewBox="0 0 41.9854 41.9854" xmlns="http://www.w3.org/2000/svg" xmlns:xlink="http://www.w3.org/1999/xlink" width="41.985352" height="41.985352" fill="none" customFrame="#000000">
	<g id="Time">
		<circle id="Ellipse 2039" cx="20.9927177" cy="20.9927177" r="20.9927177" opacity="0.300000012" fill="rgb(108,95,188)" />
		<path id="Icon" d="M10.4961 21.6495C10.4961 15.4902 15.4892 10.4971 21.6485 10.4971C27.8078 10.4971 32.8009 15.4902 32.8009 21.6495C32.8009 27.8087 27.8078 32.8018 21.6485 32.8018C15.4892 32.8018 10.4961 27.8087 10.4961 21.6495ZM22.6325 15.0892C22.6325 14.5458 22.1919 14.1052 21.6485 14.1052C21.105 14.1052 20.6644 14.5458 20.6644 15.0892L20.6644 21.6495C20.6644 21.9887 20.8392 22.3041 21.1269 22.4839L25.0631 24.944C25.5239 25.232 26.131 25.0919 26.4191 24.6311C26.7071 24.1702 26.567 23.5631 26.1061 23.2751L22.6325 21.1041L22.6325 15.0892Z" fill="rgb(108,95,188)" fill-rule="evenodd" />
	</g>
</svg>
