<svg width="51" height="51" viewBox="0 0 51 51" fill="none" xmlns="http://www.w3.org/2000/svg">
<rect width="50.2588" height="50.2588" rx="25.1294" fill="#F2FDF6"/>
<path d="M30.3641 34.8151H19.8935C16.7523 34.8151 14.6582 33.2445 14.6582 29.5798V22.2504C14.6582 18.5857 16.7523 17.0151 19.8935 17.0151H30.3641C33.5053 17.0151 35.5994 18.5857 35.5994 22.2504V29.5798C35.5994 33.2445 33.5053 34.8151 30.3641 34.8151Z" stroke="#22C55E" stroke-width="1.57059" stroke-miterlimit="10" stroke-linecap="round" stroke-linejoin="round"/>
<path d="M25.1295 29.0563C26.8643 29.0563 28.2706 27.6499 28.2706 25.9151C28.2706 24.1803 26.8643 22.7739 25.1295 22.7739C23.3946 22.7739 21.9883 24.1803 21.9883 25.9151C21.9883 27.6499 23.3946 29.0563 25.1295 29.0563Z" stroke="#22C55E" stroke-width="1.57059" stroke-miterlimit="10" stroke-linecap="round" stroke-linejoin="round"/>
<path d="M18.3232 23.2979V28.5331" stroke="#22C55E" stroke-width="1.57059" stroke-miterlimit="10" stroke-linecap="round" stroke-linejoin="round"/>
<path d="M31.9346 23.2979V28.5331" stroke="#22C55E" stroke-width="1.57059" stroke-miterlimit="10" stroke-linecap="round" stroke-linejoin="round"/>
</svg>
