<svg viewBox="0 0 21.5894 35" xmlns="http://www.w3.org/2000/svg" xmlns:xlink="http://www.w3.org/1999/xlink" width="21.589355" height="35.000000" fill="none" customFrame="#000000">
	<path id="G" d="M15.2924 13.7445Q14.6916 12.641 13.6371 12.0647Q12.5826 11.4884 11.1786 11.4884Q9.6214 11.4884 8.41364 12.1934Q7.20587 12.8923 6.52535 14.1982Q5.85096 15.5041 5.85096 17.2084Q5.85096 18.968 6.53761 20.2738Q7.23039 21.5797 8.46268 22.2847Q9.69497 22.9836 11.3258 22.9836Q13.3367 22.9836 14.618 21.9169Q15.8993 20.8501 16.2978 18.9434L10.2713 18.9434L10.2713 16.2582L19.7618 16.2582L19.7618 19.3174Q19.4123 21.1505 18.2536 22.7078Q17.101 24.265 15.2801 25.2091Q13.4593 26.1533 11.2031 26.1533Q8.665 26.1533 6.61731 25.0129Q4.56962 23.8665 3.39864 21.8311Q2.23379 19.7956 2.23379 17.2084Q2.23379 14.6274 3.39864 12.5797Q4.56962 10.532 6.61731 9.39165Q8.665 8.2452 11.1786 8.2452Q14.1398 8.2452 16.3224 9.69206Q18.5111 11.1328 19.3387 13.7445L15.2924 13.7445Z" fill="rgb(50,49,66)" fill-rule="nonzero" />
</svg>
