<svg viewBox="0 0 17.5444 15.7451" xmlns="http://www.w3.org/2000/svg" xmlns:xlink="http://www.w3.org/1999/xlink" width="17.544434" height="15.745117" fill="none" customFrame="#000000">
	<path id="Icon" d="M16.4473 0.197152C16.7109 0.460672 16.7109 0.887924 16.4473 1.15144L14.1609 3.43789C14.4234 3.60595 14.6732 3.78178 14.9091 3.96279C15.6889 4.56132 16.3329 5.22906 16.7879 5.88468C17.2304 6.52219 17.5447 7.2218 17.5447 7.87202C17.5447 8.52224 17.2304 9.22185 16.7879 9.85936C16.3329 10.515 15.6889 11.1827 14.9091 11.7813C13.3523 12.976 11.1873 13.9451 8.77247 13.9451C7.25841 13.9451 5.84257 13.5642 4.61329 12.9855L2.05189 15.5469C1.78837 15.8104 1.36112 15.8104 1.0976 15.5469C0.834079 15.2834 0.834079 14.8561 1.0976 14.5926L15.493 0.197152C15.7566 -0.0663684 16.1838 -0.0663684 16.4473 0.197152ZM8.77247 1.79894C9.70129 1.79894 10.5931 1.9423 11.4276 2.18673C11.5882 2.23375 11.636 2.4347 11.5177 2.55299L10.7759 3.29486C10.7202 3.35051 10.6396 3.3728 10.5629 3.35515C9.9876 3.2228 9.38779 3.14851 8.77247 3.14851C6.71523 3.14851 4.83152 3.97888 3.45755 5.03339C2.77206 5.5595 2.23025 6.12887 1.86574 6.65412C1.48865 7.19749 1.34982 7.62253 1.34982 7.87202C1.34982 8.12151 1.48865 8.54655 1.86574 9.08991C2.18409 9.54865 2.63767 10.041 3.20409 10.5089C3.30833 10.5949 3.31822 10.7525 3.22263 10.8481L2.58481 11.4859C2.50355 11.5672 2.37394 11.5743 2.28589 11.5005C1.66239 10.9776 1.14201 10.4141 0.756997 9.85936C0.314578 9.22185 0.000244141 8.52224 0.000244141 7.87202C0.000244141 7.2218 0.314578 6.52219 0.756997 5.88468C1.21199 5.22906 1.85602 4.56132 2.63587 3.96279C4.19261 2.76801 6.35762 1.79894 8.77247 1.79894ZM11.5874 6.01137L13.1807 4.41813C13.5024 4.6103 13.8056 4.81713 14.0874 5.03339C14.7729 5.5595 15.3147 6.12887 15.6792 6.65412C16.0563 7.19749 16.1951 7.62253 16.1951 7.87202C16.1951 8.12151 16.0563 8.54655 15.6792 9.08991C15.3147 9.61517 14.7729 10.1845 14.0874 10.7107C12.7134 11.7652 10.8297 12.5955 8.77247 12.5955C7.65873 12.5955 6.59585 12.3522 5.63717 11.9616L6.91182 10.687C7.44519 11.0402 8.0848 11.246 8.77247 11.246C10.6358 11.246 12.1464 9.73539 12.1464 7.87202C12.1464 7.18436 11.9407 6.54474 11.5874 6.01137ZM9.08855 4.5127C8.98449 4.50303 8.87906 4.49809 8.77247 4.49809C6.9091 4.49809 5.39853 6.00865 5.39853 7.87202C5.39853 7.97861 5.40348 8.08404 5.41315 8.18811C5.4296 8.36522 5.64137 8.42934 5.76715 8.30357L6.85784 7.21287C7.06016 6.62508 7.52553 6.15971 8.11332 5.95739L9.20401 4.8667C9.32979 4.74093 9.26567 4.52916 9.08855 4.5127ZM8.77247 9.89638C8.45994 9.89638 8.16396 9.82556 7.89969 9.69909L10.5995 6.99924C10.726 7.26351 10.7968 7.55949 10.7968 7.87202C10.7968 8.99004 9.89049 9.89638 8.77247 9.89638Z" fill="rgb(108,95,188)" fill-rule="evenodd" />
</svg>
