<svg viewBox="0 0 17.4885 15.6953" xmlns="http://www.w3.org/2000/svg" xmlns:xlink="http://www.w3.org/1999/xlink" width="17.488525" height="15.695312" fill="none" customFrame="#000000">
	<path id="Icon" d="M16.3942 0.197011C16.6569 0.459692 16.6569 0.885582 16.3942 1.14826L14.1151 3.42742C14.3767 3.59495 14.6257 3.77022 14.8608 3.95065C15.6382 4.54728 16.2802 5.21289 16.7337 5.86642C17.1747 6.5019 17.4881 7.19928 17.4881 7.84743C17.4881 8.49558 17.1747 9.19296 16.7337 9.82844C16.2802 10.482 15.6382 11.1476 14.8608 11.7442C13.3091 12.9352 11.1509 13.9012 8.74379 13.9012C7.23456 13.9012 5.82323 13.5214 4.59786 12.9446L2.04462 15.4978C1.78194 15.7605 1.35605 15.7605 1.09337 15.4978C0.830691 15.2352 0.830691 14.8093 1.09337 14.5466L15.443 0.197011C15.7056 -0.0656703 16.1315 -0.0656703 16.3942 0.197011ZM8.74379 1.7937C9.66965 1.7937 10.5587 1.9366 11.3905 2.18025C11.5505 2.22712 11.5982 2.42743 11.4803 2.54535L10.7408 3.28485C10.6853 3.34032 10.6049 3.36254 10.5285 3.34495C9.95505 3.21302 9.35716 3.13897 8.74379 3.13897C6.6931 3.13897 4.8154 3.96669 3.44581 5.01784C2.7625 5.54227 2.22242 6.10983 1.85906 6.63341C1.48318 7.17505 1.34479 7.59873 1.34479 7.84743C1.34479 8.09613 1.48318 8.51981 1.85906 9.06144C2.1764 9.51871 2.62854 10.0095 3.19315 10.4759C3.29706 10.5617 3.30692 10.7187 3.21163 10.814L2.57584 11.4498C2.49485 11.5308 2.36565 11.5379 2.27788 11.4643C1.65636 10.9431 1.13764 10.3815 0.753854 9.82844C0.312845 9.19296 -0.000488281 8.49558 -0.000488281 7.84743C-0.000488281 7.19928 0.312845 6.5019 0.753854 5.86642C1.2074 5.21289 1.84937 4.54728 2.62675 3.95065C4.17852 2.75968 6.33663 1.7937 8.74379 1.7937ZM11.5498 5.99271L13.1379 4.40454C13.4587 4.5961 13.7609 4.80227 14.0418 5.01784C14.7251 5.54227 15.2652 6.10983 15.6285 6.63341C16.0044 7.17505 16.1428 7.59873 16.1428 7.84743C16.1428 8.09613 16.0044 8.51981 15.6285 9.06144C15.2652 9.58502 14.7251 10.1526 14.0418 10.677C12.6722 11.7282 10.7945 12.5559 8.74379 12.5559C7.6336 12.5559 6.5741 12.3133 5.61849 11.924L6.88907 10.6534C7.42074 11.0055 8.05832 11.2106 8.74379 11.2106C10.6012 11.2106 12.107 9.70486 12.107 7.84743C12.107 7.16196 11.9019 6.52438 11.5498 5.99271ZM9.05887 4.49881C8.95514 4.48917 8.85004 4.48425 8.74379 4.48425C6.88636 4.48425 5.38061 5.98999 5.38061 7.84743C5.38061 7.95368 5.38553 8.05878 5.39517 8.16251C5.41157 8.33906 5.62267 8.40298 5.74805 8.2776L6.83526 7.19038C7.03694 6.60446 7.50083 6.14058 8.08675 5.9389L9.17396 4.85169C9.29934 4.72631 9.23542 4.51521 9.05887 4.49881ZM8.74379 9.86534C8.43226 9.86534 8.13722 9.79474 7.87379 9.66868L10.565 6.97743C10.6911 7.24086 10.7617 7.5359 10.7617 7.84743C10.7617 8.96189 9.85825 9.86534 8.74379 9.86534Z" fill="rgb(162.297,162.681,165.75)" fill-rule="evenodd" />
</svg>
