<svg viewBox="0 0 14.8083 19.1318" xmlns="http://www.w3.org/2000/svg" xmlns:xlink="http://www.w3.org/1999/xlink" width="14.808350" height="19.131836" fill="none" customFrame="#000000">
	<path id="Icon" d="M2.75905 5.4241L3.07122 8.23364L2.39184 8.28788C1.32034 8.37341 0.445402 9.17888 0.271707 10.2397C-0.090569 12.4521 -0.090569 14.7088 0.271707 16.9213C0.445402 17.9821 1.32034 18.7875 2.39184 18.8731L3.87246 18.9913C6.22321 19.1789 8.58519 19.1789 10.9359 18.9913L12.4166 18.8731C13.4881 18.7875 14.363 17.9821 14.5367 16.9213C14.899 14.7088 14.899 12.4521 14.5367 10.2397C14.363 9.17888 13.4881 8.37341 12.4166 8.28788L11.7371 8.23363L12.0492 5.4241C12.0893 5.0639 12.0893 4.70037 12.0492 4.34016L12.0267 4.13739C11.7877 1.98654 10.0968 0.284712 7.94758 0.0318567C7.58653 -0.0106189 7.22176 -0.0106189 6.86072 0.0318566C4.71145 0.284711 3.02057 1.98654 2.78158 4.13739L2.75905 4.34016C2.71903 4.70037 2.71903 5.0639 2.75905 5.4241ZM7.77413 1.50614C7.52832 1.47722 7.27997 1.47722 7.03416 1.50614C5.57087 1.67829 4.41966 2.83695 4.25695 4.30132L4.23442 4.50409C4.2065 4.75535 4.2065 5.00892 4.23442 5.26017L4.55225 8.12066C6.45155 7.99835 8.35675 7.99835 10.256 8.12065L10.5739 5.26017C10.6018 5.00892 10.6018 4.75535 10.5739 4.50409L10.5513 4.30132C10.3886 2.83695 9.23742 1.67829 7.77413 1.50614ZM3.99059 9.64941C6.26271 9.46803 8.54568 9.46803 10.8178 9.64941L12.2984 9.76761C12.6893 9.79881 13.0084 10.0926 13.0717 10.4795C13.408 12.5331 13.408 14.6278 13.0717 16.6814C13.0084 17.0683 12.6893 17.3621 12.2984 17.3933L10.8178 17.5115C8.54568 17.6929 6.26271 17.6929 3.99059 17.5115L2.50997 17.3933C2.11914 17.3621 1.8 17.0683 1.73664 16.6814C1.40038 14.6278 1.40038 12.5331 1.73664 10.4795C1.8 10.0926 2.11914 9.79881 2.50997 9.76761L3.99059 9.64941ZM7.40417 12.096C6.58433 12.096 5.91972 12.7606 5.91972 13.5805C5.91972 14.4003 6.58433 15.0649 7.40417 15.0649C8.22401 15.0649 8.88862 14.4003 8.88862 13.5805C8.88862 12.7606 8.22401 12.096 7.40417 12.096Z" fill="rgb(162.297,162.681,165.75)" fill-rule="evenodd" />
</svg>
