<svg viewBox="0 0 16.2539 18.2373" xmlns="http://www.w3.org/2000/svg" xmlns:xlink="http://www.w3.org/1999/xlink" width="16.253906" height="18.237305" fill="none" customFrame="#000000">
	<g id="User Icon">
		<path id="Icon" d="M4.19458 4.15009C4.19458 1.85806 5.95518 0 8.127 0C10.2988 0 12.0594 1.85806 12.0594 4.15009C12.0594 6.44212 10.2988 8.30018 8.127 8.30018C5.95518 8.30018 4.19458 6.44212 4.19458 4.15009ZM0 14.6637C0 12.3716 1.7606 10.5136 3.93242 10.5136L4.28987 10.5136C4.48334 10.5136 4.67559 10.5459 4.8595 10.6092L5.76711 10.922C7.30053 11.4504 8.95346 11.4504 10.4869 10.922L11.3945 10.6092C11.5784 10.5459 11.7707 10.5136 11.9641 10.5136L12.3216 10.5136C14.4934 10.5136 16.254 12.3716 16.254 14.6637L16.254 15.9787C16.254 16.8123 15.6816 17.5231 14.902 17.6574C10.415 18.4305 5.83896 18.4305 1.35199 17.6574C0.572438 17.5231 0 16.8123 0 15.9787L0 14.6637Z" fill="rgb(108,95,188)" fill-rule="evenodd" />
		<path id="Icon" d="M3.75849 4.56388C3.75849 2.04332 5.8018 0 8.32236 0C10.8429 0 12.8862 2.04332 12.8862 4.56388C12.8862 7.08444 10.8429 9.12775 8.32236 9.12775C5.8018 9.12775 3.75849 7.08444 3.75849 4.56388ZM8.32236 1.61078C6.69141 1.61078 5.36927 2.93293 5.36927 4.56388C5.36927 6.19483 6.69141 7.51697 8.32236 7.51697C9.95331 7.51697 11.2755 6.19483 11.2755 4.56388C11.2755 2.93293 9.95331 1.61078 8.32236 1.61078ZM4.02695 10.7385C1.80293 10.7385 0 12.5415 0 14.7655L0 16.0415C0 16.8504 0.586199 17.5401 1.38449 17.6704C5.97932 18.4206 10.6654 18.4206 15.2602 17.6704C16.0585 17.5401 16.6447 16.8504 16.6447 16.0415L16.6447 14.7655C16.6447 12.5415 14.8418 10.7385 12.6178 10.7385L12.2517 10.7385C12.0536 10.7385 11.8567 10.7699 11.6684 10.8314L10.739 11.1348C9.1687 11.6476 7.47603 11.6476 5.90575 11.1348L4.97631 10.8314C4.78798 10.7699 4.59111 10.7385 4.39299 10.7385L4.02695 10.7385ZM1.61078 14.7655C1.61078 13.4311 2.69254 12.3493 4.02695 12.3493L4.39299 12.3493C4.4213 12.3493 4.44942 12.3538 4.47632 12.3626L5.40576 12.6661C7.30092 13.2849 9.3438 13.2849 11.239 12.6661L12.1684 12.3626C12.1953 12.3538 12.2234 12.3493 12.2517 12.3493L12.6178 12.3493C13.9522 12.3493 15.0339 13.4311 15.0339 14.7655L15.0339 16.0415C15.0339 16.061 15.0199 16.0775 15.0007 16.0807C10.5778 16.8028 6.06698 16.8028 1.64404 16.0807C1.62486 16.0775 1.61078 16.061 1.61078 16.0415L1.61078 14.7655Z" opacity="0" fill="rgb(0,90,100)" fill-opacity="0.349999994" fill-rule="evenodd" />
	</g>
</svg>
