<svg viewBox="0 0 16.5918 18.1748" xmlns="http://www.w3.org/2000/svg" xmlns:xlink="http://www.w3.org/1999/xlink" width="16.591797" height="18.174805" fill="none" customFrame="#000000">
	<g id="User Icon">
		<path id="Icon" d="M4.18122 -9.53108C4.18122 -11.7444 5.93621 -13.5386 8.10111 -13.5386C10.266 -13.5386 12.021 -11.7444 12.021 -9.53108C12.021 -7.3178 10.266 -5.52358 8.10111 -5.52358C5.93621 -5.52358 4.18122 -7.3178 4.18122 -9.53108ZM0 0.621253C0 -1.59203 1.75499 -3.38625 3.91989 -3.38625L4.2762 -3.38625C4.46905 -3.38625 4.66069 -3.35507 4.84402 -3.29387L5.74874 -2.99185C7.27727 -2.48158 8.92494 -2.48158 10.4535 -2.99185L11.3582 -3.29387C11.5415 -3.35507 11.7332 -3.38625 11.926 -3.38625L12.2823 -3.38625C14.4472 -3.38625 16.2022 -1.59203 16.2022 0.621252L16.2022 1.89113C16.2022 2.69608 15.6316 3.38242 14.8545 3.51212C10.3819 4.25867 5.82036 4.25867 1.34768 3.51212C0.570614 3.38242 0 2.69608 0 1.89113L0 0.621253Z" opacity="0" fill="rgb(0,0,0)" fill-rule="evenodd" />
		<path id="Icon" d="M3.74651 4.54934C3.74651 2.03681 5.78332 0 8.29585 0C10.8084 0 12.8452 2.03681 12.8452 4.54934C12.8452 7.06187 10.8084 9.09868 8.29585 9.09868C5.78332 9.09868 3.74651 7.06187 3.74651 4.54934ZM8.29585 1.60565C6.6701 1.60565 5.35216 2.92358 5.35216 4.54934C5.35216 6.17509 6.6701 7.49303 8.29585 7.49303C9.92161 7.49303 11.2395 6.17509 11.2395 4.54934C11.2395 2.92358 9.92161 1.60565 8.29585 1.60565ZM4.01412 10.7043C1.79718 10.7043 0 12.5015 0 14.7184L0 15.9904C0 16.7967 0.584332 17.4842 1.38008 17.6141C5.96027 18.3619 10.6314 18.3619 15.2116 17.6141C16.0074 17.4842 16.5917 16.7967 16.5917 15.9904L16.5917 14.7184C16.5917 12.5015 14.7945 10.7043 12.5776 10.7043L12.2127 10.7043C12.0152 10.7043 11.819 10.7356 11.6312 10.7969L10.7048 11.0994C9.13949 11.6105 7.45221 11.6105 5.88694 11.0994L4.96046 10.7969C4.77273 10.7356 4.57649 10.7043 4.379 10.7043L4.01412 10.7043ZM1.60565 14.7184C1.60565 13.3883 2.68396 12.31 4.01412 12.31L4.379 12.31C4.40721 12.31 4.43525 12.3144 4.46207 12.3232L5.38854 12.6257C7.27767 13.2426 9.31404 13.2426 11.2032 12.6257L12.1296 12.3232C12.1565 12.3144 12.1845 12.31 12.2127 12.31L12.5776 12.31C13.9077 12.31 14.9861 13.3883 14.9861 14.7184L14.9861 15.9904C14.9861 16.0098 14.972 16.0263 14.9529 16.0294C10.5441 16.7492 6.04765 16.7492 1.6388 16.0294C1.61969 16.0263 1.60565 16.0098 1.60565 15.9904L1.60565 14.7184Z" fill="rgb(162.297,162.681,165.75)" fill-rule="evenodd" />
	</g>
</svg>
