<svg viewBox="0 0 18.2131 13.9819" xmlns="http://www.w3.org/2000/svg" xmlns:xlink="http://www.w3.org/1999/xlink" width="18.213135" height="13.981934" fill="none" customFrame="#000000">
	<g id="Email">
		<path id="Icon" d="M0.186904 3.61281C-0.0848105 6.02401 -0.0726987 8.8049 0.305395 11.2063C0.514603 12.5351 1.65005 13.5537 3.05164 13.6701L4.51643 13.7917C7.57072 14.0453 10.6423 14.0453 13.6966 13.7917L15.1614 13.6701C16.563 13.5537 17.6984 12.5351 17.9076 11.2063C18.2857 8.80489 18.2978 6.02416 18.0261 3.61296C17.991 3.33342 17.9515 3.05426 17.9076 2.77557C17.6984 1.44682 16.563 0.428163 15.1614 0.311798L13.6966 0.190185C10.6423 -0.0633951 7.57072 -0.0633949 4.51643 0.190185L3.05163 0.311798C1.65005 0.428163 0.514603 1.44682 0.305395 2.77557C0.261524 3.05421 0.222026 3.33333 0.186904 3.61281ZM4.64242 1.57449C7.61287 1.32787 10.6001 1.32787 13.5706 1.57449L15.0354 1.6961C15.767 1.75685 16.3597 2.28859 16.4689 2.9822C16.4803 3.05423 16.4913 3.12629 16.502 3.19839L11.1083 6.0603C9.86338 6.72089 8.34956 6.72089 7.10459 6.0603L1.71098 3.19842C1.72171 3.12631 1.73274 3.05424 1.74409 2.9822C1.85329 2.28859 2.446 1.75685 3.17763 1.6961L4.64242 1.57449ZM16.6801 4.69349C16.8682 6.79422 16.7978 8.91079 16.4689 10.9997C16.3597 11.6933 15.767 12.225 15.0354 12.2858L13.5706 12.4074C10.6001 12.654 7.61287 12.654 4.64242 12.4074L3.17763 12.2858C2.446 12.225 1.85329 11.6933 1.74409 10.9997C1.4152 8.9108 1.34482 6.79424 1.53295 4.69352L6.39805 7.27496C8.08242 8.1687 10.1305 8.1687 11.8149 7.27496L16.6801 4.69349Z" fill="rgb(162.297,162.681,165.75)" fill-rule="evenodd" />
		<path id="Icon" d="M4.42591 -15.8941C7.54109 -16.1564 10.6739 -16.1564 13.7891 -15.8941L15.2899 -15.7677C16.2891 -15.6836 17.1448 -15.1062 17.5882 -14.2804C17.6449 -14.1748 17.6024 -14.0469 17.4979 -13.9842L11.2708 -10.2499C9.93527 -9.44902 8.25127 -9.43221 6.899 -10.2063L0.630322 -13.7947C0.529045 -13.8526 0.482557 -13.972 0.528199 -14.077C0.933823 -15.0104 1.84576 -15.6768 2.92505 -15.7677L4.42591 -15.8941ZM0.152268 -11.9984C0.170335 -12.1719 0.368103 -12.2674 0.523098 -12.1787L6.14064 -8.96306C7.97019 -7.91577 10.2485 -7.9385 12.0554 -9.02207L17.665 -12.386C17.8192 -12.4786 18.0204 -12.3848 18.0399 -12.2101C18.3182 -9.7191 18.2648 -7.20208 17.8796 -4.72109C17.6824 -3.45019 16.6116 -2.47588 15.2899 -2.36458L13.7891 -2.2382C10.6739 -1.97587 7.54109 -1.97587 4.42591 -2.2382L2.92505 -2.36458C1.60336 -2.47588 0.532639 -3.45019 0.335357 -4.72109C-0.0388633 -7.13183 -0.0998931 -9.57659 0.152268 -11.9984Z" opacity="0" fill="rgb(0,0,0)" fill-rule="evenodd" />
	</g>
</svg>
