<svg viewBox="0 0 14.8545 19.5981" xmlns="http://www.w3.org/2000/svg" xmlns:xlink="http://www.w3.org/1999/xlink" width="14.854492" height="19.598145" fill="none" customFrame="#000000">
	<path id="Icon" d="M2.60653 5.629L2.95886 8.79998L2.24587 8.8569C1.25163 8.93627 0.439769 9.68366 0.278597 10.668C-0.0928656 12.9365 -0.0928656 15.2504 0.278597 17.519C0.439769 18.5033 1.25163 19.2507 2.24587 19.3301L3.78242 19.4527C6.20838 19.6464 8.64592 19.6464 11.0719 19.4527L12.6084 19.3301C13.6027 19.2507 14.4145 18.5033 14.5757 17.519C14.9472 15.2504 14.9472 12.9365 14.5757 10.668C14.4145 9.68366 13.6027 8.93627 12.6084 8.8569L11.8953 8.79997L12.2477 5.629C12.2892 5.25519 12.2892 4.87793 12.2477 4.50412L12.2243 4.29369C11.9763 2.06158 10.2215 0.295467 7.99106 0.0330601C7.61637 -0.01102 7.23782 -0.01102 6.86314 0.03306C4.63268 0.295467 2.87792 2.06158 2.62991 4.29369L2.60653 4.50412C2.56499 4.87793 2.56499 5.25519 2.60653 5.629ZM7.81106 1.56303C7.55596 1.53302 7.29823 1.53302 7.04313 1.56303C5.52456 1.74169 4.32986 2.94412 4.16101 4.46381L4.13763 4.67424C4.10865 4.93499 4.10865 5.19814 4.13763 5.45888L4.49585 8.68288C6.44801 8.55768 8.40618 8.55768 10.3583 8.68287L10.7166 5.45888C10.7455 5.19814 10.7455 4.93499 10.7166 4.67424L10.6932 4.46381C10.5243 2.94412 9.32963 1.74169 7.81106 1.56303ZM7.42712 12.553C6.57631 12.553 5.8866 13.2427 5.8866 14.0935C5.8866 14.9443 6.57631 15.634 7.42712 15.634C8.27793 15.634 8.96764 14.9443 8.96764 14.0935C8.96764 13.2427 8.27793 12.553 7.42712 12.553Z" fill="rgb(108,95,188)" fill-rule="evenodd" />
</svg>
